<?xml version="1.0" encoding="UTF-8" standalone="no"?>
<svg
   width="64"
   height="64"
   viewBox="0 0 64 64"
   fill="none"
   version="1.1"
   id="svg119"
   sodipodi:docname="org.kde.arianna.svg"
   inkscape:version="1.2.2 (b0a8486541, 2022-12-01)"
   xmlns:inkscape="http://www.inkscape.org/namespaces/inkscape"
   xmlns:sodipodi="http://sodipodi.sourceforge.net/DTD/sodipodi-0.dtd"
   xmlns="http://www.w3.org/2000/svg"
   xmlns:svg="http://www.w3.org/2000/svg">
  <sodipodi:namedview
     id="namedview121"
     pagecolor="#ffffff"
     bordercolor="#000000"
     borderopacity="0.25"
     inkscape:showpageshadow="2"
     inkscape:pageopacity="0.0"
     inkscape:pagecheckerboard="0"
     inkscape:deskcolor="#d1d1d1"
     showgrid="true"
     showguides="true"
     inkscape:zoom="11.400412"
     inkscape:cx="47.454425"
     inkscape:cy="30.700645"
     inkscape:window-width="1920"
     inkscape:window-height="1007"
     inkscape:window-x="0"
     inkscape:window-y="0"
     inkscape:window-maximized="1"
     inkscape:current-layer="svg119">
    <inkscape:grid
       type="xygrid"
       id="grid6103"
       empspacing="5" />
  </sodipodi:namedview>
  <path
     d="m 10,13.770565 v 48.227524 h 40.471886 c 1.868509,0 3.372668,-2.099842 3.372668,-4.708158 v -38.81112 c 0,-2.608403 -1.504159,-4.708246 -3.372668,-4.708246 z"
     fill="#a85000"
     id="path2"
     sodipodi:nodetypes="ccssssc"
     style="stroke-width:0.0783792" />
  <path
     d="m 10.58644,20.83289 v 40.160766 h 39.929142 c 1.882595,0 3.398163,-2.099842 3.398163,-4.70816 V 25.541052 c 0,-2.608317 -1.515568,-4.708162 -3.398163,-4.708162 z"
     fill="url(#paint0_linear_510_1129)"
     id="path4"
     sodipodi:nodetypes="ccssssc"
     style="fill:url(#paint0_linear_510_1129);stroke-width:0.0787897" />
  <path
     d="M 10,3.177344 V 59 H 50.308 C 52.183134,59 54,56.398812 54,53.790496 V 7.885547 C 54,5.277205 52.490508,3.177344 50.615374,3.177344 Z"
     fill="#a85100"
     id="path6"
     style="stroke-width:0.078518"
     sodipodi:nodetypes="ccssssc" />
  <path
     d="m 10,2.000077 v 55.321366 h 40.471886 c 1.868509,0 3.372668,-2.099844 3.372668,-4.708255 V 6.70828 c 0,-2.608342 -1.504159,-4.708203 -3.372668,-4.708203 z"
     fill="url(#paint1_linear_510_1129)"
     fill-opacity="0.990315"
     id="path8"
     style="fill:url(#paint1_linear_510_1129);stroke-width:0.0783792" />
  <path
     d="M 10,2.000077 V 58 H 50.615374 C 52.490508,58 54,55.221599 54,52.613188 V 6.70828 C 54,4.099938 52.490508,2.000077 50.615374,2.000077 Z"
     fill="url(#paint2_linear_510_1129)"
     fill-opacity="0.990315"
     id="path10"
     style="fill:url(#paint2_linear_510_1129);stroke-width:0.078518"
     sodipodi:nodetypes="ccssssc" />
  <path
     d="M 14,2.000077 H 10 V 57.321443 L 14,58 Z"
     fill="#a85000"
     id="path12"
     style="stroke-width:0.0850431"
     sodipodi:nodetypes="ccccc" />
  <path
     d="M 10,57.362326 V 62 h 5 v -1 h -4 v -3 h 3 v -0.637674 z"
     fill="#a85000"
     id="path14"
     sodipodi:nodetypes="ccccccccc"
     style="stroke-width:0.075493" />
  <line
     x1="11.390347"
     y1="2.7420616"
     x2="11.390347"
     y2="57.062454"
     stroke="#acacac"
     stroke-width="0.510259"
     stroke-linecap="round"
     stroke-dasharray="40, 40"
     id="line16"
     style="stroke-width:0.51;stroke-dasharray:2.55, 2.55;stroke-dashoffset:0" />
  <defs
     id="defs117">
    <linearGradient
       id="paint0_linear_510_1129"
       x1="562.26801"
       y1="456.76001"
       x2="609.52399"
       y2="456.76001"
       gradientUnits="userSpaceOnUse"
       gradientTransform="matrix(0.07190967,0,0,0.08632807,10.083073,2.000077)">
      <stop
         stop-color="#E8E7E4"
         id="stop100" />
      <stop
         offset="0.511049"
         stop-color="white"
         id="stop102" />
      <stop
         offset="1"
         stop-color="#C2BFBA"
         id="stop104" />
    </linearGradient>
    <linearGradient
       id="paint1_linear_510_1129"
       x1="482.569"
       y1="655.625"
       x2="79.034401"
       y2="-44.716599"
       gradientUnits="userSpaceOnUse"
       gradientTransform="matrix(0.07116236,0,0,0.08632807,10,2.000077)">
      <stop
         offset="0.140181"
         stop-color="#FF7A00"
         id="stop107" />
      <stop
         offset="1"
         stop-color="#FFB800"
         id="stop109" />
    </linearGradient>
    <linearGradient
       id="paint2_linear_510_1129"
       x1="482.569"
       y1="655.625"
       x2="79.034401"
       y2="-44.716599"
       gradientUnits="userSpaceOnUse"
       gradientTransform="matrix(0.07141466,0,0,0.08632807,10,2.000077)">
      <stop
         offset="0.140181"
         stop-color="#FF7A00"
         id="stop112" />
      <stop
         offset="1"
         stop-color="#FFB800"
         id="stop114" />
    </linearGradient>
  </defs>
  <path
     id="path2703"
     style="color:#000000;opacity:0.809735;fill:#ffffff;stroke-width:0.0960566;-inkscape-stroke:none"
     d="m 14,2.000077 c 0,0 3.1e-5,1.4790514 3.1e-5,2.224369 0.18568,-0.01934 0.37146,-0.03727 0.558133,-0.04451 0.09526,0.0024 0.189745,0.0081 0.283894,0.015 0.112073,0.0083 0.22399,0.01724 0.334945,0.0317 0.08679,0.0111 0.172412,0.02602 0.258041,0.0408 0.127371,0.02226 0.254288,0.04639 0.379616,0.07672 0.06586,0.01579 0.130669,0.034 0.195698,0.05193 0.140519,0.03903 0.280031,0.08132 0.417251,0.130328 0.04939,0.01756 0.09796,0.03683 0.146774,0.05564 0.147962,0.05722 0.294295,0.11883 0.43754,0.187493 0.03841,0.01838 0.07622,0.03782 0.114217,0.05698 0.148198,0.07487 0.293731,0.15519 0.435903,0.242124 0.03317,0.02027 0.0659,0.04115 0.09867,0.06205 0.143383,0.09144 0.283504,0.188845 0.419703,0.292369 0.0288,0.02188 0.05733,0.04404 0.08574,0.06644 0.136784,0.107767 0.269533,0.221472 0.397943,0.341267 0.02478,0.0231 0.04956,0.04612 0.07396,0.06963 0.129053,0.124329 0.253209,0.255018 0.372581,0.391342 0.02008,0.02294 0.04044,0.04556 0.06022,0.06879 0.12026,0.141383 0.233687,0.287852 0.340837,0.438385 0.01543,0.02167 0.03146,0.04287 0.04664,0.06475 0.107197,0.154608 0.206727,0.314066 0.299928,0.476995 0.01195,0.02095 0.02456,0.04129 0.03632,0.06239 0.09088,0.163056 0.173694,0.330302 0.250351,0.500432 0.01117,0.02478 0.02334,0.04906 0.0342,0.07402 0.07116,0.163272 0.133611,0.330247 0.191444,0.498916 0.01234,0.03635 0.02632,0.07193 0.03813,0.108579 0.04937,0.152565 0.09011,0.307927 0.128448,0.464014 0.0141,0.05788 0.03028,0.114836 0.04287,0.173332 0.02904,0.133605 0.04998,0.269115 0.07084,0.404662 0.01288,0.08492 0.0276,0.169265 0.03731,0.255275 0.01315,0.114322 0.01958,0.229546 0.02683,0.344807 0.0065,0.1069 0.01397,0.213585 0.01555,0.321875 0.0017,0.111315 -0.0027,0.223099 -0.0067,0.334859 -0.117476,3.424632 -2.766696,6.150208 -6.066656,6.234336 -0.173502,-0.0069 -0.346348,-0.02267 -0.518906,-0.04039 -0.01275,-0.0013 -0.0255,-0.0026 -0.03825,-0.004 L 14,18.566175 c 0.02024,0.0011 -0.0203,0.07461 0,0.07561 v 5.645721 1.266764 1.53323 l -8e-5,6.779117 1.6e-4,1.533681 -8e-5,1.631075 h 1.548458 v -1.613591 -1.533505 -2.531845 c 0.129881,-0.0013 0.25966,-0.0027 0.390088,-0.0081 0.202069,-0.0081 0.40395,-0.01895 0.605258,-0.03399 h 1.68e-4 c 0.202165,-0.01517 0.403902,-0.03427 0.605258,-0.05714 h 3.36e-4 5.01e-4 c 0.200901,-0.02303 0.40136,-0.04997 0.601497,-0.08058 l 0.0011,-1.76e-4 c 0.199959,-0.03033 0.399332,-0.06432 0.597897,-0.102242 h 5.02e-4 3.34e-4 c 0.199109,-0.03805 0.397352,-0.08016 0.594786,-0.125668 0.197712,-0.04551 0.394276,-0.09479 0.589878,-0.147703 l 5.04e-4,-1.76e-4 c 0.195719,-0.05295 0.390444,-0.109419 0.583822,-0.169627 0.193815,-0.06026 0.386377,-0.12445 0.577605,-0.192038 h 1.68e-4 c 0.19143,-0.06771 0.381475,-0.138941 0.570078,-0.213801 h -3.35e-4 c 0.188591,-0.07474 0.375708,-0.153065 0.561406,-0.234871 h 1.67e-4 c 0.186014,-0.08193 0.370214,-0.167379 0.552899,-0.256282 0.182703,-0.08897 0.363672,-0.181353 0.542752,-0.277028 l -0.684945,-1.361359 c -0.16293,0.08708 -0.327356,0.171062 -0.493174,0.251731 h -1.66e-4 c -0.166204,0.08084 -0.33375,0.15859 -0.502665,0.233031 -0.16883,0.07434 -0.339063,0.145507 -0.510518,0.213447 h -1.67e-4 l -1.68e-4,1.77e-4 c -0.171572,0.06812 -0.344276,0.132846 -0.518045,0.194245 -0.174098,0.06148 -0.349211,0.119846 -0.525244,0.174678 h -1.67e-4 c -0.176247,0.05485 -0.353242,0.106305 -0.531136,0.154447 h -1.68e-4 l -1.66e-4,1.75e-4 c -0.178263,0.04821 -0.35724,0.09318 -0.536863,0.134608 h -1.67e-4 c -0.179837,0.04144 -0.360488,0.07949 -0.541607,0.114158 -0.181065,0.03439 -0.362632,0.06554 -0.544716,0.09317 l -6.7e-4,1.76e-4 h -5.02e-4 c -0.18187,0.02789 -0.36434,0.05227 -0.547335,0.07312 -0.183355,0.02086 -0.367055,0.03805 -0.550932,0.052 -0.184027,0.01382 -0.368173,0.02437 -0.552244,0.03115 h -8.39e-4 -6.69e-4 c -0.110576,0.004 -0.222112,0.0054 -0.333309,0.0067 v -2.773798 c 0.976288,-0.07286 2.124635,-0.141632 3.044211,-0.390129 -0.30054,0.02917 -0.01228,0.02333 0.0081,-0.01538 h 3.36e-4 1.67e-4 c 0.136818,-0.03321 0.273315,-0.06835 0.409396,-0.105208 l 5.04e-4,-1.73e-4 c 0.195733,-0.05291 0.390324,-0.109419 0.583659,-0.169622 0.193806,-0.06031 0.386201,-0.124477 0.577441,-0.192047 h 3.35e-4 1.68e-4 c 0.191303,-0.06768 0.381177,-0.138903 0.569588,-0.213627 l 1.67e-4,-1.73e-4 h 1.68e-4 c 0.188418,-0.07468 0.375455,-0.152915 0.561079,-0.234705 h 1.68e-4 v -1.72e-4 c 0.185908,-0.08196 0.370219,-0.1674 0.552898,-0.256287 h 1.67e-4 l 1.68e-4,-1.72e-4 c 0.09201,-0.04482 0.182513,-0.09304 0.273749,-0.139608 0.08947,-0.04568 0.179722,-0.08957 0.268349,-0.136912 l 1.67e-4,-1.72e-4 c 0.179098,-0.09555 0.356435,-0.194461 0.531953,-0.296752 h 1.68e-4 c 0.17559,-0.102379 0.349182,-0.207904 0.520826,-0.316819 0.171747,-0.108959 0.341429,-0.221157 0.509046,-0.336543 l 1.67e-4,-1.74e-4 h 1.68e-4 c 0.167456,-0.115405 0.332702,-0.234107 0.495791,-0.355765 v 1.72e-4 c 0.163074,-0.121607 0.32377,-0.24647 0.482211,-0.374144 l 1.66e-4,-1.73e-4 1.69e-4,-1.72e-4 c 0.158476,-0.127593 0.314488,-0.25803 0.468138,-0.39151 l 1.69e-4,-1.73e-4 h 1.67e-4 c 0.08195,-0.0713 0.161146,-0.145756 0.241678,-0.218687 0.03739,-0.03385 0.07534,-0.06697 0.112415,-0.101173 l 4.758125,4.809246 c -0.07052,0.06988 -0.1382,0.142665 -0.209608,0.211607 -0.260207,0.239543 -0.525609,0.473034 -0.796375,0.700241 -0.272593,0.228737 -0.550494,0.45134 -0.833354,0.667185 v -3.52e-4 c -0.259122,0.197672 -0.523367,0.388248 -0.790484,0.574625 -0.316169,0.220599 -0.63678,0.434955 -0.963604,0.639371 v -1.76e-4 c -0.301494,0.188517 -0.607074,0.370047 -0.916805,0.544278 -0.309731,0.174218 -0.623551,0.341284 -0.941022,0.500931 h -1.68e-4 c -0.634831,0.319319 -1.283982,0.608833 -1.945368,0.867673 -0.330716,0.129326 -0.664209,0.251095 -1.000418,0.364861 -0.336265,0.113753 -0.675234,0.219651 -1.016455,0.317668 l 0.399579,1.477021 c 0.725849,-0.208505 1.442031,-0.450744 2.145813,-0.726038 0.3518,-0.137681 0.700357,-0.28346 1.045414,-0.437379 0.345011,-0.153877 0.686592,-0.315892 1.024309,-0.485763 0.337825,-0.169871 0.671605,-0.347716 1.001238,-0.533133 0.329631,-0.18543 0.655129,-0.378512 0.976039,-0.579176 0.348143,-0.217741 0.689749,-0.445964 1.026599,-0.681012 0.02206,-0.01543 0.04524,-0.02912 0.06725,-0.04455 0.261474,-0.183737 0.519391,-0.372607 0.773631,-0.566528 l 1.68e-4,-1.76e-4 c 0.30118,-0.229833 0.597057,-0.466602 0.887352,-0.710181 0.290297,-0.243592 0.575025,-0.494038 0.853973,-0.750997 l 0.0062,-0.0054 0.0065,-0.0054 c 0.08929,-0.08613 0.173812,-0.17706 0.261804,-0.264542 l 3.068345,3.10123 c -7.55e-4,8.81e-4 -0.0022,0.0027 -0.0029,0.004 -0.003,0.004 0.0092,-0.0095 0.0035,-0.004 l 0.480412,0.485941 0.283402,0.279384 0.298783,0.308891 c 0.096,-0.09858 0.05795,-0.06541 0.07658,-0.08829 0.01862,-0.02302 0.04095,-0.05091 0.06676,-0.08328 0.05162,-0.06486 0.116595,-0.147146 0.1813,-0.22898 0.06471,-0.08179 0.129184,-0.163168 0.178191,-0.224756 0.02451,-0.03074 0.04517,-0.05688 0.0589,-0.0738 0.01373,-0.01693 0.07204,-0.07503 -0.01407,0.01395 l 0.0032,-0.004 0.0032,-0.0027 c 0.191842,-0.203157 0.381104,-0.409063 0.567461,-0.617609 h -1.68e-4 c 0.186352,-0.208506 0.370049,-0.41957 0.55077,-0.633303 l 1.68e-4,-1.76e-4 1.68e-4,-1.62e-4 c 0.180434,-0.213719 0.357944,-0.430065 0.532606,-0.648809 l 5.03e-4,-3.52e-4 c 0.174781,-0.218568 0.346548,-0.43968 0.515428,-0.663136 l -1.174144,-0.94275 c -0.160575,0.21246 -0.324022,0.422752 -0.490229,0.630594 l -1.66e-4,1.77e-4 -1.69e-4,1.62e-4 c -0.166082,0.208018 -0.33501,0.413558 -0.50659,0.616782 -0.171615,0.202954 -0.345969,0.403402 -0.522954,0.601426 v 1.75e-4 c -0.03553,0.03967 -0.07243,0.07814 -0.108157,0.11768 l -2.998965,-3.031097 -0.04599,-0.04618 -1.016453,-1.0275 -4.731947,-4.783116 -0.39565,-0.399774 c 0.0344,-0.04171 0.06865,-0.08344 0.102598,-0.125452 0.04402,-0.05443 0.08951,-0.107347 0.132866,-0.162371 0.60376,-0.767288 1.132751,-1.580809 1.586533,-2.431012 0.05867,-0.109513 0.113874,-0.220624 0.170171,-0.331654 0.165284,-0.327129 0.319318,-0.658835 0.462412,-0.995302 0.03593,-0.08417 0.08027,-0.16347 0.114861,-0.248362 l 8.437292,2.804819 0.456846,-1.459314 -8.385092,-2.787617 c 0.03729,-0.122433 0.06473,-0.24882 0.09932,-0.372458 0.09183,-0.328817 0.174564,-0.659522 0.246423,-0.993278 0.03518,-0.163554 0.0697,-0.326835 0.10014,-0.492171 0.08457,-0.458006 0.156682,-0.918416 0.203553,-1.38243 0.0043,-0.04368 0.0056,-0.08824 0.0096,-0.13202 0.02525,-0.270874 0.0417,-0.542583 0.054,-0.814721 h 7.589046 v 1.71e-4 l 0.764523,-1.43e-4 h 0.500864 v -1.74e-4 h 0.222697 c -3.6e-5,-0.19412 -0.0087,-0.503049 -0.01315,-0.766667 h 0.01117 c -1.72e-4,-0.763518 -0.0352,-1.52664 -0.10506,-2.286762 V 8.362001 C 39.170847,7.982 39.127287,7.602934 39.075127,7.225067 39.022957,6.84714 38.962252,6.470228 38.892846,6.095046 h -1.67e-4 C 38.753873,5.344619 38.580878,4.601079 38.374056,3.866863 V 3.866691 C 38.196404,3.23598 37.988989,2.614399 37.762415,2 h -1.599131 c 0.03457,0.08701 0.073,0.172388 0.106515,0.259827 V 2.26 c 0.255901,0.667237 0.481132,1.345946 0.674964,2.034105 0.193849,0.688138 0.356156,1.385034 0.4863,2.088228 0.06503,0.351487 0.121956,0.704491 0.170827,1.058532 0.04889,0.354102 0.08957,0.709183 0.122233,1.065274 h 1.69e-4 v 3.45e-4 c 0.02923,0.318046 0.05253,0.844715 0.06986,1.375686 h -7.55697 c -0.01144,-0.254681 -0.02999,-0.509291 -0.05286,-0.763802 -0.0056,-0.06279 -0.0068,-0.126766 -0.01314,-0.189347 C 30.123382,8.456206 30.050723,7.985042 29.962883,7.515229 29.933913,7.359852 29.899503,7.206868 29.866343,7.053071 29.795183,6.723483 29.713638,6.39577 29.622375,6.069234 29.579485,5.91579 29.539675,5.761513 29.492613,5.609942 29.472923,5.546482 29.455963,5.482553 29.435513,5.419244 L 33.529474,3.572633 32.932559,2.167947 28.892104,3.990615 C 28.595378,3.297618 28.241625,2.638801 27.859717,2.000077 h -1.765052 c 0.557068,0.812947 1.045882,1.679745 1.439922,2.602994 l -0.0032,0.0015 0.163954,0.385948 c 0.02636,0.06679 0.04729,0.134796 0.07265,0.201825 0.103531,0.273786 0.204255,0.549118 0.292403,0.83057 0.05737,0.182513 0.105135,0.366712 0.155446,0.550511 0.0682,0.250321 0.131572,0.502713 0.187354,0.758237 0.03628,0.165096 0.07282,0.330131 0.10357,0.495881 0.07607,0.413654 0.141708,0.831189 0.184245,1.256309 0.0059,0.0588 0.0071,0.117706 0.01248,0.176534 0.01818,0.204963 0.01998,0.414528 0.0301,0.621832 H 22.086093 C 22.080893,9.826198 22.072743,9.771309 22.066463,9.715632 22.052143,9.58919 22.030893,9.46445 22.010823,9.339126 21.988453,9.199512 21.967003,9.05995 21.937793,8.922833 21.912253,8.802956 21.880023,8.68514 21.849253,8.566726 21.813943,8.431178 21.779573,8.295709 21.737657,8.163074 21.698527,8.038827 21.652517,7.917473 21.607579,7.795337 21.563399,7.675802 21.520439,7.55596 21.47095,7.439235 21.41413,7.304519 21.350032,7.173447 21.286051,7.041991 21.238651,6.945071 21.192611,6.847608 21.141568,6.752993 21.063908,6.608388 20.979284,6.468039 20.892854,6.328266 20.846224,6.253166 20.800764,6.177552 20.751806,6.104184 20.699976,6.026224 20.649668,5.947699 20.595051,5.871502 l 2.755977,-2.784558 -1.03429,-1.086856 h -0.01537 L 19.601507,4.727853 C 19.535177,4.665163 19.46292,4.610593 19.394682,4.550475 19.337512,4.500005 19.279981,4.450505 19.221402,4.401761 19.088652,4.29157 18.953168,4.186187 18.814132,4.085619 18.741572,4.032939 18.66807,3.982321 18.593725,3.932184 18.463726,3.844874 18.33222,3.761071 18.197583,3.682136 18.103263,3.626576 18.007312,3.574478 17.910581,3.522968 17.79045,3.459308 17.669847,3.397583 17.546673,3.340533 17.430329,3.286393 17.312034,3.236856 17.192746,3.188616 17.079583,3.143036 16.966483,3.098656 16.851256,3.058613 16.721494,3.013383 16.589796,2.973673 16.457079,2.93553 16.344505,2.90323 16.231993,2.87184 16.117876,2.84481 15.983371,2.81295 15.847176,2.78697 15.710117,2.76253 15.655907,2.75273 15.602932,2.73814 15.548455,2.72965 V 2.000077 Z m 27.994419,0 c 0.06675,0.222627 0.132086,0.445689 0.193572,0.669716 v 1.74e-4 1.72e-4 c 0.07103,0.259076 0.138648,0.519192 0.202735,0.780156 v 1.73e-4 c 0.06421,0.261288 0.12498,0.523199 0.182117,0.786057 v 1.73e-4 c 0.05716,0.262863 0.110734,0.52641 0.160847,0.790779 v 1.73e-4 c 0.05014,0.264159 0.09669,0.529277 0.139737,0.794994 v 1.72e-4 c 0.04307,0.265643 0.08262,0.532071 0.118631,0.799041 0.03589,0.266703 0.06813,0.533766 0.09687,0.801401 v 1.73e-4 c 0.02876,0.267653 0.05395,0.535604 0.07543,0.803761 v 1.72e-4 l 1.67e-4,1.74e-4 v 1.72e-4 c 0.02164,0.268266 0.03966,0.536992 0.05415,0.805785 1.2e-5,1.72e-4 -7e-6,5.18e-4 0,6.91e-4 0.01435,0.269264 0.02546,0.537935 0.03225,0.805785 7e-6,2.58e-4 -8e-6,3.45e-4 0,6.9e-4 v 5.18e-4 3.45e-4 8.64e-4 1.72e-4 c 0.0076,0.267804 0.01091,0.53658 0.01091,0.80646 v 1.72e-4 1.73e-4 c -7.3e-5,0.269942 -0.0034,0.53893 -0.01091,0.806798 v 0.0012 0.0014 c -0.0068,0.268041 -0.01787,0.536664 -0.03225,0.806123 -0.01451,0.268953 -0.0325,0.537575 -0.05415,0.805954 l -1.67e-4,1.72e-4 v 3.45e-4 c -0.02147,0.268156 -0.04668,0.536103 -0.07543,0.803763 -0.02876,0.267854 -0.06096,0.535312 -0.09687,0.802243 -0.03601,0.266748 -0.07558,0.53294 -0.118631,0.798365 -0.0431,0.265801 -0.08962,0.530926 -0.139737,0.795163 -0.05006,0.264249 -0.103676,0.52804 -0.160847,0.790947 -0.05714,0.262863 -0.117908,0.524942 -0.182117,0.786226 -0.06419,0.261227 -0.131684,0.521397 -0.202735,0.780494 -0.07108,0.259002 -0.14574,0.517308 -0.223842,0.774424 h -1.68e-4 v 1.72e-4 c -0.07795,0.257002 -0.159299,0.512935 -0.244131,0.76768 -0.08481,0.254511 -0.173207,0.508028 -0.264914,0.76026 l -1.68e-4,1.72e-4 -1.67e-4,1.74e-4 c -0.09156,0.252375 -0.186265,0.503486 -0.284549,0.753177 -0.09831,0.249324 -0.200059,0.497294 -0.305002,0.743737 -0.105002,0.246672 -0.213226,0.491873 -0.324799,0.735474 -0.111627,0.243501 -0.226659,0.485276 -0.344764,0.725528 l 1.327511,0.692984 c 0.124321,-0.252882 0.245413,-0.50746 0.362926,-0.763799 v -1.74e-4 l 1.67e-4,-1.72e-4 c 0.117409,-0.256342 0.231311,-0.514165 0.341819,-0.77375 h -1.69e-4 c 0.110484,-0.259464 0.217526,-0.520513 0.321038,-0.783021 l 1.68e-4,-1.74e-4 v -4.37e-4 c 0.103372,-0.262619 0.203294,-0.526651 0.299603,-0.792127 l 1.67e-4,-3.45e-4 c 0.0964,-0.26518 0.189167,-0.531825 0.278494,-0.799883 h 1.67e-4 v -1.74e-4 c 0.08922,-0.267923 0.174868,-0.537066 0.256896,-0.807471 v -5.16e-4 c 0.08212,-0.270359 0.160745,-0.541903 0.235624,-0.814723 v -1.71e-4 c 0.0748,-0.272795 0.146063,-0.546531 0.213533,-0.82113 0.06753,-0.274843 0.131273,-0.550731 0.191444,-0.827535 0.06012,-0.276526 0.116804,-0.553938 0.169519,-0.832257 l -1.68e-4,1.73e-4 c 0.05275,-0.27821 0.101796,-0.557121 0.1471,-0.836472 0.04535,-0.279581 0.08682,-0.559614 0.12469,-0.84018 v -1.74e-4 -1.72e-4 c 0.03778,-0.280843 0.07202,-0.562264 0.10227,-0.844061 v -1.71e-4 c 0.03023,-0.281441 0.05657,-0.563348 0.07919,-0.845746 v -5.19e-4 c 0.02278,-0.282421 0.04184,-0.564883 0.0571,-0.847768 v -3.45e-4 -1.73e-4 c 0.015,-0.281663 0.02666,-0.5644 0.03387,-0.848105 v -0.0021 c 7.54e-4,-0.02764 4.19e-4,-0.05517 0.0011,-0.08278 h 3.822668 c -0.01337,0.585926 -0.02195,1.172201 -0.06577,1.756743 -0.06286,0.839513 -0.157041,1.676413 -0.282421,2.508908 -0.125373,0.832611 -0.281747,1.660299 -0.468956,2.481259 -0.187184,0.820834 -0.405063,1.634492 -0.653037,2.439103 -0.248131,0.804791 -0.526102,1.599919 -0.833683,2.383971 -0.307527,0.783829 -0.644351,1.555953 -1.009582,2.314672 v 1.71e-4 c -0.365163,0.758863 -0.758572,1.503719 -1.179428,2.233234 -0.4209,0.72956 -0.868947,1.443168 -1.343218,2.139319 -0.47432,0.696071 -0.9746,1.373995 -1.499647,2.032756 v 1.63e-4 c -0.523996,0.657638 -1.072486,1.295248 -1.64413,1.912043 -0.294719,0.3072 -1.491021,1.491985 -1.886626,1.874763 -0.588028,0.541936 -1.192016,1.066117 -1.817085,1.56503 -0.658566,0.525415 -1.336677,1.026196 -2.032744,1.500964 h -1.68e-4 c -0.696208,0.475051 -1.41008,0.923968 -2.13992,1.345677 -0.729726,0.421522 -1.474913,0.815606 -2.234171,1.181442 -0.759273,0.365931 -1.532086,0.703328 -2.31664,1.011489 -0.784503,0.307971 -1.580293,0.586652 -2.38569,0.835119 h -1.67e-4 c -0.805464,0.248658 -1.619962,0.466967 -2.441815,0.654713 -0.821841,0.187773 -1.650421,0.344806 -2.484028,0.470597 l 0.21566,1.517309 c 0.869254,-0.131223 1.733322,-0.295013 2.590389,-0.490815 0.857063,-0.19579 1.706582,-0.423525 2.546698,-0.682867 0.840131,-0.259193 1.670274,-0.549898 2.488776,-0.871208 h 1.67e-4 c 0.818487,-0.321486 1.624844,-0.673334 2.417106,-1.055164 0.7923,-0.381759 1.56987,-0.793218 2.331531,-1.23321 0.761687,-0.440102 1.50674,-0.908612 2.233515,-1.404519 0.726733,-0.495689 1.434961,-1.018328 2.12274,-1.567048 h 1.68e-4 c 0.628795,-0.501892 1.237908,-1.027862 1.830993,-1.571612 l 0.0021,0.0027 c 0.0084,-0.0081 0.03606,-0.03615 0.04533,-0.04509 0.03979,-0.03657 0.08129,-0.07123 0.120918,-0.108065 l -0.0055,-0.0067 c 0.466202,-0.452451 1.520247,-1.493894 1.863064,-1.85166 l 0.0042,-0.004 0.0042,-0.004 c 0.598395,-0.645477 1.172596,-1.313055 1.721197,-2.001569 v -1.62e-4 c 0.548711,-0.688447 1.071553,-1.397179 1.567389,-2.124828 v -1.64e-4 c 0.495815,-0.727772 0.964278,-1.473879 1.404417,-2.236779 0.440066,-0.762818 0.851669,-1.541899 1.233587,-2.335575 v -1.72e-4 c 0.381996,-0.793549 0.734342,-1.601084 1.056053,-2.421064 0.321791,-0.820276 0.612654,-1.652442 0.872298,-2.494577 v -1.73e-4 c 0.259477,-0.841933 0.487572,-1.693188 0.683472,-2.552242 0.195926,-0.859178 0.359665,-1.725457 0.490882,-2.596925 0.131234,-0.871344 0.229713,-1.747328 0.295513,-2.626091 0.04678,-0.624001 0.07097,-1.249244 0.08459,-1.87477 h 0.01455 l -1.82e-4,-0.766557 v -1.73e-4 l 1.67e-4,-0.766667 h -0.01455 C 50.051086,9.258186 50.027046,8.632971 49.980276,8.009211 V 8.008968 C 49.914576,7.130093 49.815903,6.253996 49.684662,5.382536 49.55344,4.511069 49.389703,3.64479 49.19378,2.785614 49.13387,2.522882 49.065279,2.262302 48.99939,2.001073 h -1.535808 c 0.0998,0.376849 0.194586,0.755098 0.281276,1.135248 0.18721,0.820959 0.34375,1.648817 0.46912,2.481425 0.1254,0.83263 0.219712,1.669555 0.282585,2.509248 v 1.73e-4 c 0.04382,0.584379 0.05241,1.170303 0.06577,1.756069 h -3.822991 c -6.71e-4,-0.02756 -4.19e-4,-0.05487 -0.0011,-0.08244 v -8.64e-4 -0.0015 -1.72e-4 c -0.0075,-0.282854 -0.01867,-0.565389 -0.03371,-0.847769 v -5.18e-4 -1.72e-4 c -0.01525,-0.282856 -0.03432,-0.565426 -0.0571,-0.847766 v -5.17e-4 -1.74e-4 c -0.02271,-0.28232 -0.04921,-0.564158 -0.07936,-0.845576 V 7.255595 C 44.537872,6.973937 44.503912,6.692623 44.466126,6.411873 H 44.46596 V 6.411524 C 44.42805,6.130815 44.38642,5.850747 44.341063,5.571013 V 5.57084 C 44.295763,5.29155 44.247033,5.012854 44.194289,4.734706 V 4.734533 4.734361 C 44.141559,4.456217 44.085068,4.1788 44.024934,3.902273 43.964784,3.625524 43.90085,3.349688 43.833327,3.074906 v -1.73e-4 c -0.01425,-0.05797 -0.03059,-0.115445 -0.04516,-0.17333 -0.05443,-0.216363 -0.109235,-0.432551 -0.16821,-0.647629 h -1.66e-4 V 2.2536 2.253428 c -0.0232,-0.08445 -0.04909,-0.168158 -0.07298,-0.252408 z m -19.9084,9.415662 h 0.03748 6.610062 c -0.01104,0.226608 -0.01234,0.455863 -0.03306,0.679666 -0.0036,0.03875 -0.0053,0.07765 -0.0092,0.116338 -0.0417,0.417357 -0.106936,0.827227 -0.180973,1.233548 -0.03055,0.166286 -0.06497,0.331742 -0.100955,0.496892 -0.05717,0.263961 -0.123323,0.524094 -0.193737,0.782517 -0.04543,0.166173 -0.08595,0.333484 -0.136954,0.498073 -0.112218,0.362922 -0.238872,0.719008 -0.376507,1.069153 -0.07223,0.183662 -0.153768,0.363867 -0.233169,0.544776 -0.09059,0.206308 -0.184484,0.410597 -0.283731,0.611716 -0.08936,0.181221 -0.179939,0.361902 -0.276694,0.539719 -0.117804,0.216294 -0.244035,0.426447 -0.371762,0.635827 -0.14127,0.231783 -0.288142,0.460271 -0.442449,0.684892 -0.15596,0.226862 -0.314227,0.451911 -0.481883,0.669041 -0.07486,0.09697 -0.155909,0.189954 -0.233334,0.285288 L 20.588138,15.42072 c 0.820806,-1.142073 1.360248,-2.512381 1.497848,-4.004981 z m -2.23057,5.412196 4.513667,4.561899 C 22.04383,23.717427 18.967058,25.231629 15.548445,25.512 v -1.224612 -5.654657 c 0.04725,-0.0044 0.09446,-0.0066 0.141701,-0.01192 0.147122,-0.0167 0.293876,-0.03769 0.439831,-0.06273 0.145772,-0.02501 0.29095,-0.05399 0.435248,-0.08716 h 1.68e-4 1.68e-4 c 0.0441,-0.01015 0.08734,-0.02331 0.131234,-0.03421 0.07808,0.241245 0.205148,0.634159 1.237351,3.823389 l 1.41178,-0.485259 c -1.035395,-3.199093 -1.164535,-3.598069 -1.241279,-3.835192 0.04452,-0.02066 0.09006,-0.03939 0.134175,-0.06087 l -3.37e-4,5.19e-4 c 0.133467,-0.06483 0.264878,-0.133563 0.394344,-0.205703 l 3.34e-4,-1.72e-4 6.71e-4,-1.74e-4 c 0.129644,-0.07246 0.257102,-0.148586 0.38256,-0.228297 0.125478,-0.0796 0.24863,-0.162805 0.369308,-0.249204 l 3.34e-4,-1.73e-4 1.69e-4,-1.73e-4 c 0.120537,-0.08646 0.238934,-0.176204 0.354581,-0.269439 0.03918,-0.03151 0.07613,-0.06554 0.114702,-0.09779 z m 11.801637,17.449063 c -0.210518,0.159577 -0.423261,0.316203 -0.637984,0.469743 -0.214684,0.153295 -0.431382,0.303706 -0.650091,0.450866 h -1.68e-4 c -0.218785,0.147281 -0.439567,0.291463 -0.6622,0.432475 -0.222789,0.141108 -0.447529,0.279074 -0.673984,0.413775 h -1.66e-4 c -0.226228,0.134607 -0.45423,0.266059 -0.683962,0.394206 l -1.68e-4,1.77e-4 c -0.22984,0.128107 -0.461605,0.253072 -0.694763,0.374652 -0.233194,0.121606 -0.467929,0.239869 -0.704254,0.354744 -0.236401,0.114973 -0.474357,0.226653 -0.713743,0.334866 -0.239428,0.108201 -0.480349,0.213111 -0.722579,0.314458 h -1.68e-4 c -0.242171,0.10143 -0.485653,0.199379 -0.730433,0.293887 -0.244863,0.09453 -0.49102,0.185418 -0.738122,0.272803 h -1.69e-4 c -0.247221,0.08734 -0.495582,0.171402 -0.744996,0.251732 h -1.67e-4 c -0.249235,0.08043 -0.499706,0.157277 -0.751213,0.23066 -1.69e-4,5.4e-5 -5.03e-4,8.1e-5 -6.7e-4,1.76e-4 -0.251204,0.07313 -0.503517,0.142827 -0.756778,0.208912 h -1.67e-4 c -0.253503,0.06609 -0.507693,0.128784 -0.762669,0.187651 -0.255087,0.05891 -0.51104,0.114158 -0.767413,0.165754 v 1.62e-4 h -1.66e-4 c -0.128264,0.02587 -0.257192,0.04793 -0.385835,0.07205 -0.128487,0.02397 -0.256811,0.04943 -0.38567,0.07163 v 1.63e-4 c -8.3e-5,2.7e-5 -1.67e-4,-1.4e-5 -3.35e-4,0 h -1.67e-4 c -0.257699,0.04415 -0.515981,0.08491 -0.774614,0.121742 h -1.67e-4 c -0.258872,0.03697 -0.518282,0.07042 -0.77805,0.09994 h -1.66e-4 -5.04e-4 c -0.25973,0.02979 -0.519914,0.05579 -0.780503,0.07801 -0.08669,0.0067 -0.173568,0.01219 -0.260331,0.01855 -0.173863,0.01355 -0.34779,0.02694 -0.521971,0.03697 -0.259965,0.01476 -0.521058,0.02573 -0.78345,0.03372 -3.36e-4,0 -6.71e-4,-1.3e-5 -9.36e-4,0 -0.261733,0.0067 -0.522708,0.01084 -0.782793,0.01084 h -3.35e-4 C 14.535937,39.97234 14,39.955252 14,39.955252 v 1.531648 2.917628 1.548509 c 0.268058,0.0067 0.536049,0.01517 0.804228,0.01517 h 0.74418 v -0.766664 -3.70688 c 0,0 0.05343,-4.33e-4 0.08,-0.0011 h 6.7e-4 6.71e-4 c 0.274726,-0.0081 0.549506,-0.01964 0.824029,-0.03548 0.137344,-0.0081 0.274421,-0.0195 0.411686,-0.02912 0.13719,-0.0095 0.274575,-0.01746 0.411687,-0.02912 h 1.68e-4 1.67e-4 1.68e-4 c 0.250101,-0.02139 0.499522,-0.04713 0.74876,-0.07503 0.02405,-0.0027 0.04828,-0.004 0.07232,-0.0067 0.273333,-0.03115 0.546405,-0.06636 0.818791,-0.105221 0.272425,-0.03887 0.544221,-0.08166 0.815357,-0.128107 h 1.66e-4 c 0.135678,-0.0233 0.270891,-0.05064 0.406289,-0.07583 0.135361,-0.02519 0.270885,-0.04849 0.405959,-0.0757 0.270105,-0.0543 0.539317,-0.112534 0.807666,-0.174502 h 1.68e-4 c 0.268446,-0.06202 0.535775,-0.1277 0.802265,-0.197279 0.266628,-0.06948 0.532399,-0.14299 0.797031,-0.220029 h 1.67e-4 1.68e-4 c 0.26472,-0.07718 0.528295,-0.158225 0.790648,-0.242808 h 1.68e-4 c 0.262485,-0.0845 0.523629,-0.172822 0.783612,-0.264705 h 1.68e-4 v -1.75e-4 c 0.260289,-0.09208 0.519364,-0.187705 0.777067,-0.287145 0.257547,-0.0994 0.51378,-0.202534 0.768558,-0.30923 l 1.68e-4,-1.75e-4 c 0.254839,-0.106576 0.508169,-0.216809 0.760051,-0.330642 0.25191,-0.113888 0.502444,-0.231404 0.751214,-0.352389 0.248763,-0.12093 0.495817,-0.245191 0.741232,-0.373134 0.245458,-0.127972 0.489174,-0.259654 0.731089,-0.394545 0.24178,-0.134879 0.481884,-0.273278 0.71996,-0.414953 0.238372,-0.141798 0.474852,-0.286847 0.709326,-0.435347 0.234185,-0.148339 0.46642,-0.299982 0.696563,-0.454915 l 1.67e-4,-1.63e-4 c 0.230257,-0.154933 0.458576,-0.313225 0.684618,-0.474646 l 1.67e-4,-1.62e-4 h 1.69e-4 c 0.225936,-0.161568 0.44965,-0.326429 0.671199,-0.494375 z"
     sodipodi:nodetypes="cccccccccccccccccccccccsscccccccccccsccccccccccccccccccccccccccccccccccccccccccccccccccccccccccccccccccccccccccccccccccccccccccccccccccccccsccscccccccccccccccccccccccccccccccccscccccccccccccccccccccccccccccccccccccccccccccccccsccccccccccccccccccccscccccccccccccccccccccscccccccccccccccccccccccscccccccccccccccccccccccscsccccsscsccccccccccccsccccccccccccccccccccccccccccccssccscccccccccsccccccsccccccccccccccccccccccccccccccccccccccccccccccccscccccccccccsccsccccccccsccccccccccccccccccccccccccccccccccccccccccccccccccccscccccccccccccccccccccccsccccscccccccccsccccccccccccccccccccccssccccsccccccccccccscsccscccccccccccccccccscccccccccc" />
</svg>
